<svg version="1.1" xmlns="http://www.w3.org/2000/svg" viewBox="0 0 1550.9999999999998 884.9345794392474" width="1550.9999999999998" height="884.9345794392474">
  <!-- svg-source:excalidraw -->
  
  <defs>
    <style>
      @font-face {
        font-family: "Virgil";
        src: url("https://excalidraw.com/Virgil.woff2");
      }
      @font-face {
        font-family: "Cascadia";
        src: url("https://excalidraw.com/Cascadia.woff2");
      }
    </style>
  </defs>
  <rect x="0" y="0" width="1550.9999999999998" height="884.9345794392474" fill="#ffffff"></rect><g transform="translate(180.49999999999977 10) rotate(0 124.5 10)"><text x="124.5" y="14" font-family="Virgil, Segoe UI Emoji" font-size="16px" fill="#000000" text-anchor="middle" style="white-space: pre;" direction="ltr">"I want to login with my wallet"</text></g><g stroke-linecap="round"><g transform="translate(243.44859813084008 725.4953271028011) rotate(0 647.738317757009 0)"><path d="M0 0 C215.91 0, 1079.56 0, 1295.48 0 M0 0 C215.91 0, 1079.56 0, 1295.48 0" stroke="#495057" stroke-width="1" fill="none"></path></g></g><g stroke-linecap="round"><g transform="translate(247.52336448598203 870.9345794392474) rotate(0 646.738317757009 2)"><path d="M0 0 C215.58 0.67, 1077.9 3.33, 1293.48 4 M0 0 C215.58 0.67, 1077.9 3.33, 1293.48 4" stroke="#495057" stroke-width="1" fill="none"></path></g></g><g transform="translate(10 157.77777777777771) rotate(0 64 12.5)"><text x="64" y="18" font-family="Virgil, Segoe UI Emoji" font-size="20px" fill="#000000" text-anchor="middle" style="white-space: pre;" direction="ltr">Matrix Client</text></g><g transform="translate(25 277.7777777777777) rotate(0 38 12.5)"><text x="38" y="18" font-family="Virgil, Segoe UI Emoji" font-size="20px" fill="#000000" text-anchor="middle" style="white-space: pre;" direction="ltr">Synapse</text></g><g transform="translate(48.5 415.7777777777777) rotate(0 30.5 12.5)"><text x="30.5" y="18" font-family="Virgil, Segoe UI Emoji" font-size="20px" fill="#000000" text-anchor="middle" style="white-space: pre;" direction="ltr">Wallet</text></g><g transform="translate(29.5 621.7777777777777) rotate(0 37.5 12.5)"><text x="37.5" y="18" font-family="Virgil, Segoe UI Emoji" font-size="20px" fill="#000000" text-anchor="middle" style="white-space: pre;" direction="ltr">IDP UI</text></g><g transform="translate(20.5 793.7777777777777) rotate(0 64.5 12.5)"><text x="64.5" y="18" font-family="Virgil, Segoe UI Emoji" font-size="20px" fill="#000000" text-anchor="middle" style="white-space: pre;" direction="ltr">IDP Backend</text></g><g transform="translate(223.6428571428571 161.77777777777771) rotate(0 65.5 10)"><text x="65.5" y="14" font-family="Virgil, Segoe UI Emoji" font-size="16px" fill="#000000" text-anchor="middle" style="white-space: pre;" direction="ltr">click login button</text></g><g transform="translate(240.5 279.7777777777777) rotate(0 57.5 10)"><text x="57.5" y="14" font-family="Virgil, Segoe UI Emoji" font-size="16px" fill="#000000" text-anchor="middle" style="white-space: pre;" direction="ltr">create session</text></g><g stroke-linecap="round"><g transform="translate(291 198.77777777777771) rotate(0 2.2790945485153316 33)"><path d="M0 0 C0.76 11, 3.8 55, 4.56 66 M0 0 C0.76 11, 3.8 55, 4.56 66" stroke="#343a40" stroke-width="1" fill="none"></path></g><g transform="translate(291 198.77777777777771) rotate(0 2.2790945485153316 33)"><path d="M-7.62 38.58 C-4.13 46.45, -0.63 54.32, 4.56 66 M-7.62 38.58 C-4.34 45.97, -1.06 53.36, 4.56 66" stroke="#343a40" stroke-width="1" fill="none"></path></g><g transform="translate(291 198.77777777777771) rotate(0 2.2790945485153316 33)"><path d="M12.85 37.17 C10.47 45.44, 8.09 53.72, 4.56 66 M12.85 37.17 C10.62 44.94, 8.38 52.71, 4.56 66" stroke="#343a40" stroke-width="1" fill="none"></path></g></g><g transform="translate(255.5 597.7777777777777) rotate(0 41.5 20)"><text x="41.5" y="14" font-family="Virgil, Segoe UI Emoji" font-size="16px" fill="#000000" text-anchor="middle" style="white-space: pre;" direction="ltr">is wallet</text><text x="41.5" y="34" font-family="Virgil, Segoe UI Emoji" font-size="16px" fill="#000000" text-anchor="middle" style="white-space: pre;" direction="ltr">connected?</text></g><g transform="translate(406 409.7777777777777) rotate(0 39 20)"><text x="39" y="14" font-family="Virgil, Segoe UI Emoji" font-size="16px" fill="#000000" text-anchor="middle" style="white-space: pre;" direction="ltr">approve</text><text x="39" y="34" font-family="Virgil, Segoe UI Emoji" font-size="16px" fill="#000000" text-anchor="middle" style="white-space: pre;" direction="ltr">connection</text></g><g transform="translate(577 585.7777777777777) rotate(0 30 30)"><text x="30" y="14" font-family="Virgil, Segoe UI Emoji" font-size="16px" fill="#000000" text-anchor="middle" style="white-space: pre;" direction="ltr">consent</text><text x="30" y="34" font-family="Virgil, Segoe UI Emoji" font-size="16px" fill="#000000" text-anchor="middle" style="white-space: pre;" direction="ltr">request</text><text x="30" y="54" font-family="Virgil, Segoe UI Emoji" font-size="16px" fill="#000000" text-anchor="middle" style="white-space: pre;" direction="ltr">screen</text></g><g transform="translate(640 785.7777777777777) rotate(0 49 20)"><text x="49" y="14" font-family="Virgil, Segoe UI Emoji" font-size="16px" fill="#000000" text-anchor="middle" style="white-space: pre;" direction="ltr">get message</text><text x="49" y="34" font-family="Virgil, Segoe UI Emoji" font-size="16px" fill="#000000" text-anchor="middle" style="white-space: pre;" direction="ltr">to sign</text></g><g stroke-linecap="round"><g transform="translate(285.5315488988417 314.7777777777777) rotate(0 2.9991080790011893 134.0000000000001)"><path d="M0 0 C1 44.67, 5 223.33, 6 268 M0 0 C1 44.67, 5 223.33, 6 268" stroke="#343a40" stroke-width="1" fill="none"></path></g><g transform="translate(285.5315488988417 314.7777777777777) rotate(0 2.9991080790011893 134.0000000000001)"><path d="M-4.89 240.05 C-2.51 246.16, -0.12 252.28, 6 268 M-4.89 240.05 C-1.02 249.99, 2.86 259.94, 6 268" stroke="#343a40" stroke-width="1" fill="none"></path></g><g transform="translate(285.5315488988417 314.7777777777777) rotate(0 2.9991080790011893 134.0000000000001)"><path d="M15.63 239.59 C13.52 245.81, 11.41 252.02, 6 268 M15.63 239.59 C12.2 249.7, 8.77 259.81, 6 268" stroke="#343a40" stroke-width="1" fill="none"></path></g></g><g stroke-linecap="round"><g transform="translate(347 610.7777777777777) rotate(0 49.38099999999997 -66.81899999999996)"><path d="M0 0 C15.33 0.33, 76.67 26.33, 92 2 C107.33 -22.33, 92 -121.33, 92 -146 M0 0 C15.33 0.33, 76.67 26.33, 92 2 C107.33 -22.33, 92 -121.33, 92 -146" stroke="#c92a2a" stroke-width="1" fill="none"></path></g><g transform="translate(347 610.7777777777777) rotate(0 49.38099999999997 -66.81899999999996)"><path d="M104.36 -118.67 C100.4 -127.42, 96.44 -136.17, 92 -146 M104.36 -118.67 C99.97 -128.38, 95.58 -138.09, 92 -146" stroke="#c92a2a" stroke-width="1" fill="none"></path></g><g transform="translate(347 610.7777777777777) rotate(0 49.38099999999997 -66.81899999999996)"><path d="M83.9 -117.11 C86.49 -126.37, 89.09 -135.62, 92 -146 M83.9 -117.11 C86.78 -127.38, 89.65 -137.64, 92 -146" stroke="#c92a2a" stroke-width="1" fill="none"></path></g></g><g stroke-linecap="round"><g transform="translate(285 648.7777777777777) rotate(0 160.25600000000009 21.426500000000033)"><path d="M0 0 C1.33 6.67, -43.33 34, 8 40 C59.33 46, 254.67 41.67, 308 36 C361.33 30.33, 324.67 11, 328 6 M0 0 C1.33 6.67, -43.33 34, 8 40 C59.33 46, 254.67 41.67, 308 36 C361.33 30.33, 324.67 11, 328 6" stroke="#2b8a3e" stroke-width="1" fill="none"></path></g><g transform="translate(285 648.7777777777777) rotate(0 160.25600000000009 21.426500000000033)"><path d="M341.69 17.73 C337.93 14.51, 334.17 11.29, 328 6 M341.69 17.73 C337.65 14.27, 333.62 10.81, 328 6" stroke="#2b8a3e" stroke-width="1" fill="none"></path></g><g transform="translate(285 648.7777777777777) rotate(0 160.25600000000009 21.426500000000033)"><path d="M330.94 23.79 C330.14 18.9, 329.33 14.02, 328 6 M330.94 23.79 C330.08 18.54, 329.21 13.3, 328 6" stroke="#2b8a3e" stroke-width="1" fill="none"></path></g></g><g stroke-linecap="round"><g transform="translate(497 426.7777777777777) rotate(0 62.928 69.13599999999997)"><path d="M0 0 C19.33 0.67, 96 -20.33, 116 4 C136 28.33, 119.33 122.33, 120 146 M0 0 C19.33 0.67, 96 -20.33, 116 4 C136 28.33, 119.33 122.33, 120 146" stroke="#343a40" stroke-width="1" fill="none"></path></g><g transform="translate(497 426.7777777777777) rotate(0 62.928 69.13599999999997)"><path d="M111.79 117.15 C114.93 128.2, 118.08 139.26, 120 146 M111.79 117.15 C114.37 126.24, 116.96 135.34, 120 146" stroke="#343a40" stroke-width="1" fill="none"></path></g><g transform="translate(497 426.7777777777777) rotate(0 62.928 69.13599999999997)"><path d="M132.25 118.62 C127.56 129.11, 122.86 139.6, 120 146 M132.25 118.62 C128.39 127.25, 124.53 135.88, 120 146" stroke="#343a40" stroke-width="1" fill="none"></path></g></g><g transform="translate(742.3571428571427 605.7777777777777) rotate(0 49.5 20)"><text x="49.5" y="14" font-family="Virgil, Segoe UI Emoji" font-size="16px" fill="#000000" text-anchor="middle" style="white-space: pre;" direction="ltr">request to</text><text x="49.5" y="34" font-family="Virgil, Segoe UI Emoji" font-size="16px" fill="#000000" text-anchor="middle" style="white-space: pre;" direction="ltr">sign message</text></g><g transform="translate(725.2857142857142 416.06349206349194) rotate(0 32 20)"><text x="32" y="14" font-family="Virgil, Segoe UI Emoji" font-size="16px" fill="#000000" text-anchor="middle" style="white-space: pre;" direction="ltr">sign</text><text x="32" y="34" font-family="Virgil, Segoe UI Emoji" font-size="16px" fill="#000000" text-anchor="middle" style="white-space: pre;" direction="ltr">message</text></g><g transform="translate(880 783.7777777777777) rotate(0 36 20)"><text x="36" y="14" font-family="Virgil, Segoe UI Emoji" font-size="16px" fill="#000000" text-anchor="middle" style="white-space: pre;" direction="ltr">validate</text><text x="36" y="34" font-family="Virgil, Segoe UI Emoji" font-size="16px" fill="#000000" text-anchor="middle" style="white-space: pre;" direction="ltr">signature</text></g><g stroke-linecap="round"><g transform="translate(643 612.7777777777777) rotate(0 21 73.19349999999997)"><path d="M0 0 C3.67 0, 15 -26.33, 22 0 C29 26.33, 38.67 131.67, 42 158 M0 0 C3.67 0, 15 -26.33, 22 0 C29 26.33, 38.67 131.67, 42 158" stroke="#343a40" stroke-width="1" fill="none"></path></g><g transform="translate(643 612.7777777777777) rotate(0 21 73.19349999999997)"><path d="M28.73 131.09 C33.22 140.19, 37.7 149.29, 42 158 M28.73 131.09 C32.57 138.88, 36.41 146.66, 42 158" stroke="#343a40" stroke-width="1" fill="none"></path></g><g transform="translate(643 612.7777777777777) rotate(0 21 73.19349999999997)"><path d="M49.13 128.86 C46.72 138.71, 44.31 148.57, 42 158 M49.13 128.86 C47.07 137.29, 45.01 145.72, 42 158" stroke="#343a40" stroke-width="1" fill="none"></path></g></g><g stroke-linecap="round"><g transform="translate(747 808.7777777777777) rotate(0 31.084133044671717 -71.22400000000005)"><path d="M0 0 C10.33 -0.33, 57.77 23.33, 62 -2 C66.23 -27.33, 31.5 -127, 25.39 -152 M0 0 C10.33 -0.33, 57.77 23.33, 62 -2 C66.23 -27.33, 31.5 -127, 25.39 -152" stroke="#343a40" stroke-width="1" fill="none"></path></g><g transform="translate(747 808.7777777777777) rotate(0 31.084133044671717 -71.22400000000005)"><path d="M43.21 -127.86 C38.73 -133.94, 34.25 -140.01, 25.39 -152 M43.21 -127.86 C37.32 -135.85, 31.43 -143.83, 25.39 -152" stroke="#343a40" stroke-width="1" fill="none"></path></g><g transform="translate(747 808.7777777777777) rotate(0 31.084133044671717 -71.22400000000005)"><path d="M23.53 -122.06 C24 -129.59, 24.47 -137.12, 25.39 -152 M23.53 -122.06 C24.15 -131.96, 24.76 -141.86, 25.39 -152" stroke="#343a40" stroke-width="1" fill="none"></path></g></g><g stroke-linecap="round"><g transform="translate(767.9829257501358 590.7777777777777) rotate(0 -2.5924689539696146 -60.85714285714289)"><path d="M0 0 C-0.86 -20.29, -4.32 -101.43, -5.18 -121.71 M0 0 C-0.86 -20.29, -4.32 -101.43, -5.18 -121.71" stroke="#343a40" stroke-width="1" fill="none"></path></g><g transform="translate(767.9829257501358 590.7777777777777) rotate(0 -2.5924689539696146 -60.85714285714289)"><path d="M6.27 -93.99 C2.2 -103.83, -1.87 -113.68, -5.18 -121.71 M6.27 -93.99 C1.95 -104.44, -2.37 -114.89, -5.18 -121.71" stroke="#343a40" stroke-width="1" fill="none"></path></g><g transform="translate(767.9829257501358 590.7777777777777) rotate(0 -2.5924689539696146 -60.85714285714289)"><path d="M-14.24 -93.11 C-11.02 -103.27, -7.81 -113.43, -5.18 -121.71 M-14.24 -93.11 C-10.82 -103.89, -7.41 -114.67, -5.18 -121.71" stroke="#343a40" stroke-width="1" fill="none"></path></g></g><g stroke-linecap="round"><g transform="translate(801.8571428571431 432.75076697345605) rotate(0 69.37028571428584 83.2875822328931)"><path d="M0 0 C21.12 0.71, 104.29 -25.14, 126.7 4.25 C149.11 33.63, 133.17 147.64, 134.46 176.31 M0 0 C21.12 0.71, 104.29 -25.14, 126.7 4.25 C149.11 33.63, 133.17 147.64, 134.46 176.31" stroke="#343a40" stroke-width="1" fill="none"></path></g><g transform="translate(801.8571428571431 432.75076697345605) rotate(0 69.37028571428584 83.2875822328931)"><path d="M125.47 147.69 C128.73 158.05, 131.98 168.41, 134.46 176.31 M125.47 147.69 C127.36 153.69, 129.24 159.69, 134.46 176.31" stroke="#343a40" stroke-width="1" fill="none"></path></g><g transform="translate(801.8571428571431 432.75076697345605) rotate(0 69.37028571428584 83.2875822328931)"><path d="M145.97 148.61 C141.81 158.64, 137.64 168.66, 134.46 176.31 M145.97 148.61 C143.56 154.42, 141.15 160.23, 134.46 176.31" stroke="#343a40" stroke-width="1" fill="none"></path></g></g><g transform="translate(995.4999999999998 779.7777777777777) rotate(0 39.5 20)"><text x="39.5" y="14" font-family="Virgil, Segoe UI Emoji" font-size="16px" fill="#000000" text-anchor="middle" style="white-space: pre;" direction="ltr">generate</text><text x="39.5" y="34" font-family="Virgil, Segoe UI Emoji" font-size="16px" fill="#000000" text-anchor="middle" style="white-space: pre;" direction="ltr">auth code</text></g><g stroke-linecap="round"><g transform="translate(219.26168224299113 118.77777777777771) rotate(0 647.738317757009 0)"><path d="M0 0 C215.91 0, 1079.56 0, 1295.48 0 M0 0 C215.91 0, 1079.56 0, 1295.48 0" stroke="#495057" stroke-width="1" fill="none"></path></g></g><g stroke-linecap="round"><g transform="translate(213.26168224299113 226.77777777777771) rotate(0 647.738317757009 0)"><path d="M0 0 C215.91 0, 1079.56 0, 1295.48 0 M0 0 C215.91 0, 1079.56 0, 1295.48 0" stroke="#495057" stroke-width="1" fill="none"></path></g></g><g stroke-linecap="round"><g transform="translate(223.26168224299113 365.7777777777777) rotate(0 647.738317757009 0)"><path d="M0 0 C215.91 0, 1079.56 0, 1295.48 0 M0 0 C215.91 0, 1079.56 0, 1295.48 0" stroke="#495057" stroke-width="1" fill="none"></path></g></g><g stroke-linecap="round"><g transform="translate(235.26168224299136 524.7777777777777) rotate(0 647.7383177570088 0)"><path d="M0 0 C215.91 0, 1079.56 0, 1295.48 0 M0 0 C215.91 0, 1079.56 0, 1295.48 0" stroke="#495057" stroke-width="1" fill="none"></path></g></g><g transform="translate(967.9999999999998 277.7777777777777) rotate(0 55 10)"><text x="55" y="14" font-family="Virgil, Segoe UI Emoji" font-size="16px" fill="#000000" text-anchor="middle" style="white-space: pre;" direction="ltr">request token</text></g><g transform="translate(1116.9999999999998 785.7777777777777) rotate(0 32 20)"><text x="32" y="14" font-family="Virgil, Segoe UI Emoji" font-size="16px" fill="#000000" text-anchor="middle" style="white-space: pre;" direction="ltr">validate</text><text x="32" y="34" font-family="Virgil, Segoe UI Emoji" font-size="16px" fill="#000000" text-anchor="middle" style="white-space: pre;" direction="ltr">code</text></g><g transform="translate(1249.4999999999998 781.7777777777777) rotate(0 43.5 20)"><text x="43.5" y="14" font-family="Virgil, Segoe UI Emoji" font-size="16px" fill="#000000" text-anchor="middle" style="white-space: pre;" direction="ltr">generate</text><text x="43.5" y="34" font-family="Virgil, Segoe UI Emoji" font-size="16px" fill="#000000" text-anchor="middle" style="white-space: pre;" direction="ltr">auth token</text></g><g stroke-linecap="round"><g transform="translate(1088.5596635339273 295.82301417869905) rotate(0 48.55454221087166 230.09674748413056)"><path d="M0 0 C15.44 3.26, 78.75 -60.66, 92.62 19.54 C106.48 99.75, 84.76 404.29, 83.18 481.24 M0 0 C15.44 3.26, 78.75 -60.66, 92.62 19.54 C106.48 99.75, 84.76 404.29, 83.18 481.24" stroke="#343a40" stroke-width="1" fill="none"></path></g><g transform="translate(1088.5596635339273 295.82301417869905) rotate(0 48.55454221087166 230.09674748413056)"><path d="M74.21 452.62 C77.55 463.27, 80.89 473.93, 83.18 481.24 M74.21 452.62 C76.5 459.94, 78.8 467.27, 83.18 481.24" stroke="#343a40" stroke-width="1" fill="none"></path></g><g transform="translate(1088.5596635339273 295.82301417869905) rotate(0 48.55454221087166 230.09674748413056)"><path d="M94.71 453.54 C90.42 463.85, 86.13 474.17, 83.18 481.24 M94.71 453.54 C91.76 460.63, 88.81 467.72, 83.18 481.24" stroke="#343a40" stroke-width="1" fill="none"></path></g></g><g stroke-linecap="round"><g transform="translate(1184.9999999999998 814.7785435218337) rotate(0 25.25 -0.80025360696186)"><path d="M0 0 C8.42 -0.27, 42.08 -1.33, 50.5 -1.6 M0 0 C8.42 -0.27, 42.08 -1.33, 50.5 -1.6" stroke="#343a40" stroke-width="1" fill="none"></path></g><g transform="translate(1184.9999999999998 814.7785435218337) rotate(0 25.25 -0.80025360696186)"><path d="M27.05 7.79 C32.26 5.7, 37.48 3.61, 50.5 -1.6 M27.05 7.79 C32.66 5.54, 38.28 3.29, 50.5 -1.6" stroke="#343a40" stroke-width="1" fill="none"></path></g><g transform="translate(1184.9999999999998 814.7785435218337) rotate(0 25.25 -0.80025360696186)"><path d="M26.5 -9.48 C31.84 -7.73, 37.17 -5.98, 50.5 -1.6 M26.5 -9.48 C32.25 -7.6, 38 -5.71, 50.5 -1.6" stroke="#343a40" stroke-width="1" fill="none"></path></g></g><g transform="translate(1219.9999999999998 275.7777777777777) rotate(0 41 20)"><text x="41" y="14" font-family="Virgil, Segoe UI Emoji" font-size="16px" fill="#000000" text-anchor="middle" style="white-space: pre;" direction="ltr">generate</text><text x="41" y="34" font-family="Virgil, Segoe UI Emoji" font-size="16px" fill="#000000" text-anchor="middle" style="white-space: pre;" direction="ltr">login token</text></g><g transform="translate(1226.9999999999998 151.77777777777771) rotate(0 30 30)"><text x="30" y="14" font-family="Virgil, Segoe UI Emoji" font-size="16px" fill="#000000" text-anchor="middle" style="white-space: pre;" direction="ltr">request</text><text x="30" y="34" font-family="Virgil, Segoe UI Emoji" font-size="16px" fill="#000000" text-anchor="middle" style="white-space: pre;" direction="ltr">access</text><text x="30" y="54" font-family="Virgil, Segoe UI Emoji" font-size="16px" fill="#000000" text-anchor="middle" style="white-space: pre;" direction="ltr">token</text></g><g stroke-linecap="round"><g transform="translate(1284.9999999999998 776.7777777777777) rotate(0 -9 -226)"><path d="M0 0 C-3 -75.33, -15 -376.67, -18 -452 M0 0 C-3 -75.33, -15 -376.67, -18 -452" stroke="#343a40" stroke-width="1" fill="none"></path></g><g transform="translate(1284.9999999999998 776.7777777777777) rotate(0 -9 -226)"><path d="M-6.63 -424.24 C-9.95 -432.34, -13.27 -440.45, -18 -452 M-6.63 -424.24 C-9.37 -430.94, -12.12 -437.64, -18 -452" stroke="#343a40" stroke-width="1" fill="none"></path></g><g transform="translate(1284.9999999999998 776.7777777777777) rotate(0 -9 -226)"><path d="M-27.13 -423.42 C-24.47 -431.77, -21.8 -440.11, -18 -452 M-27.13 -423.42 C-24.93 -430.32, -22.72 -437.22, -18 -452" stroke="#343a40" stroke-width="1" fill="none"></path></g></g><g stroke-linecap="round"><g transform="translate(1258.9999999999998 268.7777777777777) rotate(0 -2 -26)"><path d="M0 0 C-0.67 -8.67, -3.33 -43.33, -4 -52 M0 0 C-0.67 -8.67, -3.33 -43.33, -4 -52" stroke="#343a40" stroke-width="1" fill="none"></path></g><g transform="translate(1258.9999999999998 268.7777777777777) rotate(0 -2 -26)"><path d="M6.77 -28.25 C3.27 -35.97, -0.23 -43.69, -4 -52 M6.77 -28.25 C4.17 -33.98, 1.57 -39.71, -4 -52" stroke="#343a40" stroke-width="1" fill="none"></path></g><g transform="translate(1258.9999999999998 268.7777777777777) rotate(0 -2 -26)"><path d="M-11.01 -26.88 C-8.73 -35.05, -6.45 -43.21, -4 -52 M-11.01 -26.88 C-9.32 -32.94, -7.63 -39, -4 -52" stroke="#343a40" stroke-width="1" fill="none"></path></g></g><g transform="translate(1334.9999999999998 265.7777777777777) rotate(0 34 30)"><text x="34" y="14" font-family="Virgil, Segoe UI Emoji" font-size="16px" fill="#000000" text-anchor="middle" style="white-space: pre;" direction="ltr">generate</text><text x="34" y="34" font-family="Virgil, Segoe UI Emoji" font-size="16px" fill="#000000" text-anchor="middle" style="white-space: pre;" direction="ltr">access</text><text x="34" y="54" font-family="Virgil, Segoe UI Emoji" font-size="16px" fill="#000000" text-anchor="middle" style="white-space: pre;" direction="ltr">token</text></g><g stroke-linecap="round"><g transform="translate(1294.9999999999998 184.77777777777771) rotate(0 33.60799999999995 37)"><path d="M0 0 C10.33 3.67, 51.33 9.67, 62 22 C72.67 34.33, 63.67 65.33, 64 74 M0 0 C10.33 3.67, 51.33 9.67, 62 22 C72.67 34.33, 63.67 65.33, 64 74" stroke="#343a40" stroke-width="1" fill="none"></path></g><g transform="translate(1294.9999999999998 184.77777777777771) rotate(0 33.60799999999995 37)"><path d="M57.9 48.71 C60.28 58.59, 62.67 68.47, 64 74 M57.9 48.71 C59.51 55.38, 61.12 62.05, 64 74" stroke="#343a40" stroke-width="1" fill="none"></path></g><g transform="translate(1294.9999999999998 184.77777777777771) rotate(0 33.60799999999995 37)"><path d="M75.59 50.7 C71.06 59.81, 66.53 68.91, 64 74 M75.59 50.7 C72.53 56.85, 69.47 63, 64 74" stroke="#343a40" stroke-width="1" fill="none"></path></g></g><g stroke-linecap="round"><g transform="translate(956 802.7777777777777) rotate(0 14.999999999999886 -1)"><path d="M0 0 C5 -0.33, 25 -1.67, 30 -2 M0 0 C5 -0.33, 25 -1.67, 30 -2" stroke="#343a40" stroke-width="1" fill="none"></path></g><g transform="translate(956 802.7777777777777) rotate(0 14.999999999999886 -1)"><path d="M16.25 4.07 C19.7 2.55, 23.15 1.02, 30 -2 M16.25 4.07 C19.48 2.64, 22.72 1.21, 30 -2" stroke="#343a40" stroke-width="1" fill="none"></path></g><g transform="translate(956 802.7777777777777) rotate(0 14.999999999999886 -1)"><path d="M15.56 -6.19 C19.18 -5.14, 22.81 -4.09, 30 -2 M15.56 -6.19 C18.96 -5.2, 22.36 -4.22, 30 -2" stroke="#343a40" stroke-width="1" fill="none"></path></g></g><g stroke-linecap="round"><g transform="translate(280.7259920457543 32.77777777777783) rotate(0 3.281023808172222 58.99999999999994)"><path d="M0 0 C1.09 19.67, 5.47 98.33, 6.56 118 M0 0 C1.09 19.67, 5.47 98.33, 6.56 118" stroke="#000000" stroke-width="1" fill="none"></path></g><g transform="translate(280.7259920457543 32.77777777777783) rotate(0 3.281023808172222 58.99999999999994)"><path d="M-5.25 90.42 C-0.95 100.45, 3.34 110.48, 6.56 118 M-5.25 90.42 C-2.7 96.38, -0.14 102.34, 6.56 118" stroke="#000000" stroke-width="1" fill="none"></path></g><g transform="translate(280.7259920457543 32.77777777777783) rotate(0 3.281023808172222 58.99999999999994)"><path d="M15.24 89.28 C12.08 99.73, 8.93 110.17, 6.56 118 M15.24 89.28 C13.37 95.49, 11.49 101.69, 6.56 118" stroke="#000000" stroke-width="1" fill="none"></path></g></g><g transform="translate(1408.8571428571433 165.2063492063495) rotate(0 31 20)"><text x="31" y="14" font-family="Virgil, Segoe UI Emoji" font-size="16px" fill="#000000" text-anchor="middle" style="white-space: pre;" direction="ltr">do chat</text><text x="31" y="34" font-family="Virgil, Segoe UI Emoji" font-size="16px" fill="#000000" text-anchor="middle" style="white-space: pre;" direction="ltr">things</text></g><g stroke-linecap="round"><g transform="translate(1414.1428571428576 297.9206349206353) rotate(0 22.474285714285543 -39.77142857142849)"><path d="M0 0 C7.14 -0.95, 36.43 7.86, 42.86 -5.71 C49.29 -19.29, 39.29 -68.81, 38.57 -81.43 M0 0 C7.14 -0.95, 36.43 7.86, 42.86 -5.71 C49.29 -19.29, 39.29 -68.81, 38.57 -81.43" stroke="#343a40" stroke-width="1" fill="none"></path></g><g transform="translate(1414.1428571428576 297.9206349206353) rotate(0 22.474285714285543 -39.77142857142849)"><path d="M52.3 -54.75 C49.5 -60.19, 46.7 -65.63, 38.57 -81.43 M52.3 -54.75 C48.82 -61.51, 45.34 -68.27, 38.57 -81.43" stroke="#343a40" stroke-width="1" fill="none"></path></g><g transform="translate(1414.1428571428576 297.9206349206353) rotate(0 22.474285714285543 -39.77142857142849)"><path d="M31.94 -52.17 C33.29 -58.13, 34.64 -64.1, 38.57 -81.43 M31.94 -52.17 C33.62 -59.58, 35.3 -67, 38.57 -81.43" stroke="#343a40" stroke-width="1" fill="none"></path></g></g><g transform="translate(1014.9285714285718 605.2063492063504) rotate(0 43.5 20)"><text x="43.5" y="14" font-family="Virgil, Segoe UI Emoji" font-size="16px" fill="#000000" text-anchor="middle" style="white-space: pre;" direction="ltr">redirect to</text><text x="43.5" y="34" font-family="Virgil, Segoe UI Emoji" font-size="16px" fill="#000000" text-anchor="middle" style="white-space: pre;" direction="ltr">synapse</text></g><g transform="translate(880.0000000000007 622.3492063492075) rotate(0 57 20)"><text x="57" y="14" font-family="Virgil, Segoe UI Emoji" font-size="16px" fill="#000000" text-anchor="middle" style="white-space: pre;" direction="ltr">send signature</text><text x="57" y="34" font-family="Virgil, Segoe UI Emoji" font-size="16px" fill="#000000" text-anchor="middle" style="white-space: pre;" direction="ltr">to backend</text></g><g stroke-linecap="round"><g transform="translate(937.0000000000002 670.7777777777789) rotate(0 -5.714285714285552 51.428571428571445)"><path d="M0 0 C-1.9 17.14, -9.52 85.71, -11.43 102.86 M0 0 C-1.9 17.14, -9.52 85.71, -11.43 102.86" stroke="#000000" stroke-width="1" fill="none"></path></g><g transform="translate(937.0000000000002 670.7777777777789) rotate(0 -5.714285714285552 51.428571428571445)"><path d="M-18.51 73.71 C-15.71 85.25, -12.9 96.79, -11.43 102.86 M-18.51 73.71 C-16.5 81.99, -14.49 90.28, -11.43 102.86" stroke="#000000" stroke-width="1" fill="none"></path></g><g transform="translate(937.0000000000002 670.7777777777789) rotate(0 -5.714285714285552 51.428571428571445)"><path d="M1.88 75.97 C-3.39 86.62, -8.66 97.26, -11.43 102.86 M1.88 75.97 C-1.9 83.61, -5.68 91.25, -11.43 102.86" stroke="#000000" stroke-width="1" fill="none"></path></g></g><g stroke-linecap="round"><g transform="translate(1048.4285714285718 769.3492063492075) rotate(0 2.8571428571428896 -55.71428571428578)"><path d="M0 0 C0.95 -18.57, 4.76 -92.86, 5.71 -111.43 M0 0 C0.95 -18.57, 4.76 -92.86, 5.71 -111.43" stroke="#000000" stroke-width="1" fill="none"></path></g><g transform="translate(1048.4285714285718 769.3492063492075) rotate(0 2.8571428571428896 -55.71428571428578)"><path d="M14.52 -82.75 C11.69 -91.98, 8.85 -101.2, 5.71 -111.43 M14.52 -82.75 C11.16 -93.69, 7.8 -104.64, 5.71 -111.43" stroke="#000000" stroke-width="1" fill="none"></path></g><g transform="translate(1048.4285714285718 769.3492063492075) rotate(0 2.8571428571428896 -55.71428571428578)"><path d="M-5.98 -83.8 C-2.22 -92.69, 1.55 -101.58, 5.71 -111.43 M-5.98 -83.8 C-1.51 -94.34, 2.95 -104.89, 5.71 -111.43" stroke="#000000" stroke-width="1" fill="none"></path></g></g><g stroke-linecap="round"><g transform="translate(1055.5714285714291 595.0634920634933) rotate(0 -10.71428571428578 -142.14285714285722)"><path d="M0 0 C-3.57 -47.38, -17.86 -236.9, -21.43 -284.29 M0 0 C-3.57 -47.38, -17.86 -236.9, -21.43 -284.29" stroke="#000000" stroke-width="1" fill="none"></path></g><g transform="translate(1055.5714285714291 595.0634920634933) rotate(0 -10.71428571428578 -142.14285714285722)"><path d="M-9.08 -256.95 C-12.56 -264.65, -16.04 -272.35, -21.43 -284.29 M-9.08 -256.95 C-11.91 -263.21, -14.74 -269.48, -21.43 -284.29" stroke="#000000" stroke-width="1" fill="none"></path></g><g transform="translate(1055.5714285714291 595.0634920634933) rotate(0 -10.71428571428578 -142.14285714285722)"><path d="M-29.54 -255.4 C-27.26 -263.54, -24.97 -271.68, -21.43 -284.29 M-29.54 -255.4 C-27.68 -262.03, -25.82 -268.65, -21.43 -284.29" stroke="#000000" stroke-width="1" fill="none"></path></g></g></svg>